# xmcd
#
# Track frame offsets:
#	150
#	14245
#	28052
#	44962
#	57240
#	74380
#	93080
#	107742
#	125967
#	141632
#	159192
#	171547
#	188425
#	202180
#	218792
#	232982
#	246542
#	258542
#	274717
#	286525
#
# Disc length: 4051 seconds
#
# Revision: 1
# Processed by: cddbd v1.5.1PL0 Copyright (c) Steve Scherf et al.
# Submitted via: audiograbber 1.83.01
#
DISCID=3e0fd114
DTITLE=VALDENICE - 20 SUCESSOS
DYEAR=1900
DGENRE=
TTITLE0=PORQUE BRIGAMOS
TTITLE1=FIO DE CABELO
TTITLE2=LAMA
TTITLE3=QUEM EU QUERO NÃO ME QUER
TTITLE4=É POR VOCÊ QUE EU CANTO
TTITLE5=AQUELES OLHOS
TTITLE6=NO DIA EM QUE EU SAÍ DE CASA
TTITLE7=EM CADA SONHO
TTITLE8=LINDA. LINDA
TTITLE9=JOGO MARCADO
TTITLE10=CHANCE
TTITLE11=ADEUS SOLIDÃO
TTITLE12=SÓ MAIS UMA VEZ
TTITLE13=NO RANCHO FUNDO
TTITLE14=ALGUÉM ME LEMBRA VOCÊ
TTITLE15=AMOR DE POBRE
TTITLE16=O FIM
TTITLE17=EU NUNCA MAIS VOU TE ESQUECER
TTITLE18=FOTOGRAFIA
TTITLE19=SÁBADO
EXTD=
EXTT0=
EXTT1=
EXTT2=
EXTT3=
EXTT4=
EXTT5=
EXTT6=
EXTT7=
EXTT8=
EXTT9=
EXTT10=
EXTT11=
EXTT12=
EXTT13=
EXTT14=
EXTT15=
EXTT16=
EXTT17=
EXTT18=
EXTT19=
PLAYORDER=
